<?xml version='1.0' encoding='utf-8'?>
<svg xmlns="http://www.w3.org/2000/svg" version="2.0"><polyline points="0,300 0.0,71.19999999999999 46.08328747018896,88.0 58.31884057971015,160.0 70.05980554026785,160.0 79.01229132269309,80.0 88.50779673454413,160.0 98.59035039442306,240.0 104.66629976151167,240.0 116.92973766281418,240.0 138.97339937626126,240.0 163.33590166941846,80.0 199.23390203632363,80.0 202.32911392405066,80.0 204.84021280498993,80.0 219.4327646303431,80.0 253.07796734544124,80.0 261.6400660429279,80.0 268.76536415336636,80.0 281.5894331315355,240.0 307.03503944230414,0.0 315.13630526508894,80.0 324.65382498624103,160.0 339.22729774353326,0.0 343.85030269675286,80.0 358.4090992478444,0.0 427.74536782241785,160.0 433.4059805540267,160.0 439.8884608328746,160.0 448.8292056503393,80.0 459.495872317006,80.0 470.2564667033571,80.0 484.529077233535,80.0 493.7545404512932,80.0 668.9884424876168,0.0 671.750504494588,0.0 685.942395890662,0.0 724.9385433865343,80.0 792.4490919097411,71.19999999999999 800,300 0,300" style="fill:white;stroke:red;stroke-width:4" /></svg>